<?xml version="1.0" standalone="no"?><!DOCTYPE svg PUBLIC "-//W3C//DTD SVG 1.1//EN" "http://www.w3.org/Graphics/SVG/1.1/DTD/svg11.dtd"><svg t="1515241525760" class="icon" style="" viewBox="0 0 1024 1024" version="1.1" xmlns="http://www.w3.org/2000/svg" p-id="20406" xmlns:xlink="http://www.w3.org/1999/xlink" width="32" height="32"><defs><style type="text/css"></style></defs><path d="M275.585 890.323c-75.753 0-144.754-65.865-144.754-138.177v-396.167c0-73.359 64.124-135.337 140.026-135.337 12.205 0 22.13 9.926 22.13 22.13 0 12.205-9.926 22.13-22.13 22.13-51.906 0-95.758 41.705-95.758 91.074v396.167c0 48.275 48.832 93.919 100.489 93.919h509.392c46.545 0 81.643-40.372 81.643-93.919v-396.167c0-51.071-38.979-91.074-88.745-91.074-12.202 0-22.13-9.926-22.13-22.13 0-12.202 9.926-22.13 22.13-22.13 74.581 0 133.002 59.44 133.002 135.337v396.167c0 78.778-54.129 138.177-125.906 138.177h-509.392z" p-id="20407" fill="#707070"></path><path d="M300.11 485.633c-12.202 0-22.13-9.926-22.13-22.13s9.926-22.13 22.13-22.13h55.182c12.205 0 22.13 9.926 22.13 22.13s-9.926 22.13-22.13 22.13h-55.182z" p-id="20408" fill="#707070"></path><path d="M484.053 485.633c-12.205 0-22.13-9.926-22.13-22.13s9.926-22.13 22.13-22.13h55.182c12.205 0 22.13 9.926 22.13 22.13s-9.926 22.13-22.13 22.13h-55.182z" p-id="20409" fill="#707070"></path><path d="M686.403 485.633c-12.197 0-22.13-9.926-22.13-22.13s9.934-22.13 22.13-22.13h55.182c12.205 0 22.131 9.926 22.131 22.13s-9.926 22.13-22.131 22.13h-55.182z" p-id="20410" fill="#707070"></path><path d="M300.11 596.003c-12.202 0-22.13-9.926-22.13-22.131s9.926-22.13 22.13-22.13h55.182c12.205 0 22.13 9.926 22.13 22.13 0 12.205-9.926 22.131-22.13 22.131h-55.182z" p-id="20411" fill="#707070"></path><path d="M484.053 596.003c-12.205 0-22.13-9.926-22.13-22.131s9.926-22.13 22.13-22.13h55.182c12.205 0 22.13 9.926 22.13 22.13 0 12.205-9.926 22.131-22.13 22.131h-55.182z" p-id="20412" fill="#707070"></path><path d="M686.403 596.003c-12.197 0-22.13-9.926-22.13-22.131s9.934-22.13 22.13-22.13h55.182c12.205 0 22.131 9.926 22.131 22.13 0 12.205-9.926 22.131-22.131 22.131h-55.182z" p-id="20413" fill="#707070"></path><path d="M300.11 706.377c-12.202 0-22.13-9.926-22.13-22.131s9.926-22.13 22.13-22.13h55.182c12.205 0 22.13 9.926 22.13 22.13 0 12.205-9.926 22.131-22.13 22.131h-55.182z" p-id="20414" fill="#707070"></path><path d="M484.053 706.377c-12.205 0-22.13-9.926-22.13-22.131s9.926-22.13 22.13-22.13h55.182c12.205 0 22.13 9.926 22.13 22.13 0 12.205-9.926 22.131-22.13 22.131h-55.182z" p-id="20415" fill="#707070"></path><path d="M686.403 706.377c-12.197 0-22.13-9.926-22.13-22.131s9.934-22.13 22.13-22.13h55.182c12.205 0 22.131 9.926 22.131 22.13 0 12.205-9.926 22.131-22.131 22.131h-55.182z" p-id="20416" fill="#707070"></path><path d="M263.315 264.897c-12.205 0-22.13-9.926-22.13-22.13s9.926-22.13 22.13-22.13h496.665c12.205 0 22.131 9.926 22.131 22.13 0 12.205-9.926 22.13-22.131 22.13h-496.665z" p-id="20417" fill="#707070"></path><path d="M355.296 320.079c-12.202 0-22.13-9.926-22.13-22.13v-110.375c0-12.202 9.926-22.13 22.13-22.13 12.205 0 22.13 9.926 22.13 22.13v110.375c0 12.205-9.925 22.13-22.13 22.13z" p-id="20418" fill="#707070"></path><path d="M686.403 320.079c-12.197 0-22.13-9.926-22.13-22.13v-110.375c0-12.202 9.934-22.13 22.13-22.13 12.205 0 22.131 9.926 22.131 22.13v110.375c0 12.205-9.926 22.13-22.131 22.13z" p-id="20419" fill="#707070"></path></svg>