<?xml version="1.0" standalone="no"?><!DOCTYPE svg PUBLIC "-//W3C//DTD SVG 1.1//EN" "http://www.w3.org/Graphics/SVG/1.1/DTD/svg11.dtd"><svg t="1516329174504" class="icon" style="" viewBox="0 0 1024 1024" version="1.1" xmlns="http://www.w3.org/2000/svg" p-id="3362" xmlns:xlink="http://www.w3.org/1999/xlink" width="32" height="32"><defs><style type="text/css"></style></defs><path d="M59.82555 174.062338l0 120.467699 904.349923 0L964.175473 174.062338c0-14.84101-12.031011-26.870997-26.870997-26.870997L86.696548 147.19134C71.855538 147.19134 59.82555 159.222351 59.82555 174.062338z" p-id="3363" fill="#ffffff"></path><path d="M964.17445 364.141464 59.824527 364.141464c0 0 0 0 0 0l0 476.482065c0 19.984147 16.200984 36.18513 36.18513 36.18513L927.989319 876.80866c19.984147 0 36.18513-16.200984 36.18513-36.18513L964.17445 364.141464zM387.726625 558.986127c0 4.152577-3.366677 7.520277-7.520277 7.520277l-3.859911 0c-3.096525 0-5.876847 1.899256-7.004531 4.783956l-63.286372 162.000628c-1.12666 2.8847-3.906983 4.783956-7.004531 4.783956l-59.272965 0c-3.040243 0-5.780657-1.829671-6.945179-4.637624l-67.344804-162.293293c-1.164522-2.807952-3.90596-4.637624-6.945179-4.637624l-11.494799 0 0-53.396117 119.939673 0 0 53.396117-8.331759 0c-5.176906 0-8.80555 5.110391-7.099698 9.997702l22.768563 65.22656c2.328022 6.668886 11.734252 6.739495 14.161534 0.105401l23.868617-65.22656c2.588965-7.073092-6.101975-14.748912-14.582113-6.594185l0-56.906058 89.954755 0L387.726625 558.986127 387.726625 558.986127zM561.989531 558.986127c0 4.152577-3.366677 7.520277-7.520277 7.520277l-12.844539 0 0 116.250654 20.364817 0 0 53.396117L434.835549 736.153176l0-53.398164 20.525476 0L455.361025 566.504358l-20.525476 0 0-53.396117 127.153982 0L561.989531 558.986127 561.989531 558.986127zM856.832699 621.824291c-8.125051 10.477632-18.86772 18.066471-32.230052 22.769586-13.148461 4.596691-33.459043 6.894014-60.930721 6.894014l-34.795481 0 0 31.269168 22.449291 0 0 53.396117L620.963691 736.153176l0-53.398164 21.647019 0L642.61071 566.504358l-21.647019 0 0-53.396117 136.775106 0c31.42778 0 54.410214 3.046383 68.948325 9.140171 14.537088 6.201236 25.226544 14.646582 32.069393 25.333992 6.839779 10.69048 10.261715 22.396079 10.261715 35.115776C869.01823 598.414115 864.954681 611.457176 856.832699 621.824291z" p-id="3364" fill="#ffffff"></path><path d="M764.151857 563.458999c-4.276397-0.961908-11.543917-1.442862-21.806655-1.442862l-5.950526 0c-4.1536 0-7.520277 3.366677-7.520277 7.520277l0 26.809599c0 4.152577 3.366677 7.520277 7.520277 7.520277l9.317203 0c11.757788 0 20.309558-1.38658 25.65531-4.167926 5.130857-2.7793 7.696286-8.178263 7.696286-16.194844 0-5.236258-1.38965-9.673313-4.167926-13.308097C772.222673 566.66604 768.642125 564.420907 764.151857 563.458999z" p-id="3365" fill="#ffffff"></path></svg>