<?xml version="1.0" standalone="no"?><!DOCTYPE svg PUBLIC "-//W3C//DTD SVG 1.1//EN" "http://www.w3.org/Graphics/SVG/1.1/DTD/svg11.dtd"><svg t="1515299870888" class="icon" style="" viewBox="0 0 1047 1024" version="1.1" xmlns="http://www.w3.org/2000/svg" p-id="16418" xmlns:xlink="http://www.w3.org/1999/xlink" width="65.4375" height="64"><defs><style type="text/css"></style></defs><path d="M505.050185 140.467738c-157.428925 0-284.985909 124.962176-284.985908 279.163412 0 154.201236 127.556984 279.163412 284.985908 279.163411 157.365637 0 284.954265-124.962176 284.954265-279.163411 0.031644-154.201236-127.588628-279.163412-284.954265-279.163412z" p-id="16419"></path><path d="M175.984178 526.809394V269.068974c-3.607417 0-7.183189 0.126576-10.695674 0.411372 58.383189-126.860816 188.440049-215.210878 339.793325-215.210878 151.321632 0 281.410136 88.350062 339.82497 215.210878a134.107293 134.107293 0 0 0-10.758962-0.411372v257.74042c72.686279 0 131.639061-57.718665 131.63906-128.886032 0-48.35204-27.1822-90.406922-67.370086-112.494437C841.805686 125.879852 687.28801 11.328554 505.081829 11.328554 322.844005 11.360198 168.357973 125.911496 111.778492 285.428925 71.558962 307.484796 44.345117 349.602967 44.345117 397.955006c0 71.167367 58.921137 128.854388 131.639061 128.854388zM789.403214 674.586897a420.358962 420.358962 0 0 1-284.353029 109.773054 420.232386 420.232386 0 0 1-283.9733-109.393326c-133.157973 67.116934-220.653646 186.636341-220.653646 349.001731h1012.608158c0.031644-162.650185-89.014586-282.296168-223.628183-349.381459z" p-id="16420"></path></svg>