<?xml version="1.0" standalone="no"?><!DOCTYPE svg PUBLIC "-//W3C//DTD SVG 1.1//EN" "http://www.w3.org/Graphics/SVG/1.1/DTD/svg11.dtd"><svg t="1516688503100" class="icon" style="" viewBox="0 0 1078 1024" version="1.1" xmlns="http://www.w3.org/2000/svg" p-id="4110" xmlns:xlink="http://www.w3.org/1999/xlink" width="33.6875" height="32"><defs><style type="text/css"></style></defs><path d="M361.210125 1024 69.947769 1024C31.33661 1024 0 992.66339 0 954.052231L0 662.789875C0 624.132042 31.33661 592.842105 69.947769 592.842105L361.210125 592.842105C399.867958 592.842105 431.157895 624.132042 431.157895 662.789875L431.157895 954.052231C431.157895 992.66339 399.867958 1024 361.210125 1024ZM361.210125 485.052632 69.947769 485.052632C31.33661 485.052632 0 453.716022 0 415.104862L0 123.842506C0 85.184674 31.33661 53.894737 69.947769 53.894737L361.210125 53.894737C399.867958 53.894737 431.157895 85.184674 431.157895 123.842506L431.157895 415.104862C431.157895 453.716022 399.867958 485.052632 361.210125 485.052632ZM1008.161199 1023.514947 608.680906 1023.514947C570.187992 1023.514947 538.947368 993.300318 538.947368 956.071613L538.947368 929.274072C538.947368 892.045366 570.187992 861.830737 608.680906 861.830737L1008.161199 861.830737C1046.654114 861.830737 1077.894737 892.045366 1077.894737 929.274072L1077.894737 956.071613C1077.894737 993.300318 1046.654114 1023.514947 1008.161199 1023.514947ZM1008.161199 754.041263 608.680906 754.041263C570.187992 754.041263 538.947368 723.826634 538.947368 686.597928L538.947368 659.800387C538.947368 622.571682 570.187992 592.357053 608.680906 592.357053L1008.161199 592.357053C1046.654114 592.357053 1077.894737 622.571682 1077.894737 659.800387L1077.894737 686.597928C1077.894737 723.826634 1046.654114 754.041263 1008.161199 754.041263ZM1008.161199 484.567579 608.680906 484.567579C570.187992 484.567579 538.947368 454.35295 538.947368 417.124244L538.947368 390.326703C538.947368 353.097997 570.187992 322.883368 608.680906 322.883368L1008.161199 322.883368C1046.654114 322.883368 1077.894737 353.097997 1077.894737 390.326703L1077.894737 417.124244C1077.894737 454.35295 1046.654114 484.567579 1008.161199 484.567579ZM1008.161199 215.093895 608.680906 215.093895C570.187992 215.093895 538.947368 184.879266 538.947368 147.65056L538.947368 120.853019C538.947368 83.624313 570.187992 53.409684 608.680906 53.409684L1008.161199 53.409684C1046.654114 53.409684 1077.894737 83.624313 1077.894737 120.853019L1077.894737 147.65056C1077.894737 184.879266 1046.654114 215.093895 1008.161199 215.093895Z" p-id="4111"></path></svg>