<?xml version="1.0" standalone="no"?><!DOCTYPE svg PUBLIC "-//W3C//DTD SVG 1.1//EN" "http://www.w3.org/Graphics/SVG/1.1/DTD/svg11.dtd"><svg t="1515294929615" class="icon" style="" viewBox="0 0 1024 1024" version="1.1" xmlns="http://www.w3.org/2000/svg" p-id="6967" xmlns:xlink="http://www.w3.org/1999/xlink" width="32" height="32"><defs><style type="text/css"></style></defs><path d="M128 896a384 42.666667 0 1 0 768 0 384 42.666667 0 1 0-768 0Z" fill="#515151" p-id="6968"></path><path d="M512 85.333333a256 256 0 0 0-256 256c0 141.226667 256 554.666667 256 554.666667s256-413.44 256-554.666667a256 256 0 0 0-256-256z m0 384a128 128 0 1 1 128-128 128 128 0 0 1-128 128z" fill="#515151" p-id="6969"></path></svg>