<?xml version="1.0" standalone="no"?><!DOCTYPE svg PUBLIC "-//W3C//DTD SVG 1.1//EN" "http://www.w3.org/Graphics/SVG/1.1/DTD/svg11.dtd"><svg t="1515299568834" class="icon" style="" viewBox="0 0 1195 1024" version="1.1" xmlns="http://www.w3.org/2000/svg" p-id="5048" xmlns:xlink="http://www.w3.org/1999/xlink" width="74.6875" height="64"><defs><style type="text/css"></style></defs><path d="M57.173333 125.269333C90.453333 89.088 141.653333 83.968 187.904 84.992 461.141333 85.845333 734.378667 84.992 1007.616 85.333333 1056.768 82.432 1108.138667 101.717333 1135.786667 144.042667 1164.288 180.906667 1159.509333 229.376 1161.386667 273.066667 779.434667 273.066667 397.482667 273.237333 15.530667 272.896 15.36 221.525333 16.213333 162.816 57.173333 125.269333Z" p-id="5049"></path><path d="M14.848 324.437333C396.8 323.925333 778.581333 324.437333 1160.362667 324.266667 1159.850667 466.944 1162.069333 609.621333 1159.68 752.128 1161.898667 824.32 1097.557333 888.832 1025.365333 886.613333 734.72 888.32 443.904 887.808 153.088 886.784 72.021333 889.856 10.410667 812.373333 14.848 734.72 15.36 598.016 19.285333 461.312 14.848 324.437333M245.76 422.912C272.384 529.578667 321.024 629.248 356.010667 733.354667 360.789333 761.514667 383.146667 773.973333 410.282667 770.730667 452.778667 654.336 508.245333 542.037333 538.624 422.058667 528.554667 424.277333 508.586667 428.714667 498.517333 430.933333 455.68 523.264 433.322667 623.957333 386.901333 714.922667 355.498667 619.52 326.826667 522.410667 287.914667 429.738667 277.333333 428.032 256.341333 424.618667 245.76 422.912M585.557333 431.616C589.482667 542.037333 589.482667 652.8 585.728 763.221333 597.674667 764.757333 621.738667 767.829333 633.856 769.365333 634.88 654.677333 635.050667 539.989333 633.685333 425.301333 621.738667 426.837333 597.674667 430.08 585.557333 431.616M710.656 426.666667C708.778667 539.648 705.877333 652.970667 711.68 765.952 721.408 766.976 740.693333 769.194667 750.421333 770.389333 750.762667 724.138667 750.933333 677.888 751.274667 631.637333 800.256 630.954667 850.432 635.904 898.389333 623.786667 980.650667 597.333333 982.016 456.192 897.024 432.298667 835.754667 420.181333 772.608 428.544 710.656 426.666667Z" p-id="5050"></path><path d="M750.933333 461.141333C798.72 462.848 849.578667 452.266667 894.976 470.528 928.256 501.589333 930.816 572.928 882.005333 590.165333 839.68 602.794667 794.624 596.650667 751.104 597.333333 750.762667 551.936 750.762667 506.538667 750.933333 461.141333Z" p-id="5051"></path></svg>