<?xml version="1.0" standalone="no"?><!DOCTYPE svg PUBLIC "-//W3C//DTD SVG 1.1//EN" "http://www.w3.org/Graphics/SVG/1.1/DTD/svg11.dtd"><svg t="1515299820459" class="icon" style="" viewBox="0 0 1024 1024" version="1.1" xmlns="http://www.w3.org/2000/svg" p-id="15021" xmlns:xlink="http://www.w3.org/1999/xlink" width="64" height="64"><defs><style type="text/css"></style></defs><path d="M248.888889 853.333333h-170.666667A21.333333 21.333333 0 0 1 56.888889 832V597.333333a21.333333 21.333333 0 1 1 42.666667 0v213.333334h128V227.555556H99.555556v213.333333a21.333333 21.333333 0 1 1-42.666667 0V206.222222A21.333333 21.333333 0 0 1 78.222222 184.888889h170.666667a21.333333 21.333333 0 0 1 21.333333 21.333333v625.777778a21.333333 21.333333 0 0 1-21.333333 21.333333z" fill="#2c2c2c" p-id="15022"></path><path d="M78.222222 618.666667a21.333333 21.333333 0 1 1 0-42.666667c31.374222 0 56.888889-25.528889 56.888889-56.888889s-25.514667-56.888889-56.888889-56.888889a21.333333 21.333333 0 1 1 0-42.666666c54.897778 0 99.555556 44.672 99.555556 99.555555s-44.657778 99.555556-99.555556 99.555556z" fill="#2c2c2c" p-id="15023"></path><path d="M952.888889 437.660444V213.333333H341.333333v611.555556h611.555556V576.327111s-56.888889-23.111111-56.888889-72.888889 56.888889-65.777778 56.888889-65.777778z m-193.322667-41.984L686.407111 469.333333h39.580445c15.047111 0 27.790222 5.148444 27.790222 17.109334v2.887111c0 11.975111-12.743111 22.670222-27.790222 22.670222H668.444444v42.666667h57.543112c15.047111 0 27.790222 5.148444 27.790222 17.109333v2.887111c0 11.975111-12.743111 22.670222-27.790222 22.670222H668.444444v57.671111C668.444444 669.724444 662.300444 682.666667 650.339556 682.666667h-2.887112C635.477333 682.666667 625.777778 669.724444 625.777778 655.004444V597.333333h-63.402667C547.313778 597.333333 540.444444 586.638222 540.444444 574.663111v-2.887111c0-11.960889 6.869333-17.109333 21.930667-17.109333H625.777778v-42.666667h-63.402667C547.313778 512 540.444444 501.304889 540.444444 489.329778v-2.887111c0-11.960889 6.869333-17.109333 21.930667-17.109334h46.037333l-71.722666-72.220444c-8.590222-8.576-8.661333-22.883556-0.213334-31.345778l2.062223-2.048c8.462222-8.462222 19.754667-5.859556 28.316444 2.716445l80.554667 80.568888 81.976889-81.976888a21.816889 21.816889 0 0 1 30.848-0.213334l2.048 2.062222c8.462222 8.448 5.859556 20.238222-2.716445 28.8z" fill="#2c2c2c" p-id="15024"></path><path d="M960 853.333333h-611.555556a21.333333 21.333333 0 0 1-21.333333-21.333333v-625.777778a21.333333 21.333333 0 0 1 21.333333-21.333333h611.555556a21.333333 21.333333 0 0 1 21.333333 21.333333V440.888889a21.333333 21.333333 0 0 1-42.666666 0V227.555556H369.777778v583.111111h568.888889V597.333333a21.333333 21.333333 0 0 1 42.666666 0v234.666667a21.333333 21.333333 0 0 1-21.333333 21.333333z" fill="#2c2c2c" p-id="15025"></path><path d="M960 618.666667c-54.883556 0-99.555556-44.672-99.555556-99.555556s44.672-99.555556 99.555556-99.555555a21.333333 21.333333 0 1 1 0 42.666666c-31.36 0-56.888889 25.528889-56.888889 56.888889s25.528889 56.888889 56.888889 56.888889a21.333333 21.333333 0 0 1 0 42.666667z" fill="#2c2c2c" p-id="15026"></path></svg>