<?xml version="1.0" standalone="no"?><!DOCTYPE svg PUBLIC "-//W3C//DTD SVG 1.1//EN" "http://www.w3.org/Graphics/SVG/1.1/DTD/svg11.dtd"><svg t="1515240819752" class="icon" style="" viewBox="0 0 1024 1024" version="1.1" xmlns="http://www.w3.org/2000/svg" p-id="6979" xmlns:xlink="http://www.w3.org/1999/xlink" width="32" height="32"><defs><style type="text/css"></style></defs><path d="M512 839.344262l247.606557-379.103825c34.972678-50.360656 53.15847-107.715847 53.15847-166.469945C812.765027 131.497268 678.469945 0 512 0 346.928962 0 211.234973 131.497268 211.234973 292.371585c0 61.551913 18.185792 118.907104 53.15847 166.469945L512 839.344262z m0-790.382513c139.89071 0 251.803279 109.114754 251.803279 243.409836 0 48.961749-15.387978 96.52459-44.765028 139.89071L512 751.213115 303.562842 430.863388C274.185792 391.693989 258.797814 342.73224 258.797814 292.371585c1.398907-134.295082 114.710383-243.409836 253.202186-243.409836z" p-id="6980" fill="#515151"></path><path d="M505.005464 426.666667c67.147541 0 121.704918-54.557377 121.704919-121.704918 0-67.147541-54.557377-121.704918-121.704919-121.704918-67.147541 0-121.704918 54.557377-121.704918 121.704918 1.398907 65.748634 54.557377 121.704918 121.704918 121.704918z m0-195.846995c40.568306 0 72.743169 33.57377 72.74317 72.74317 0 40.568306-32.174863 72.743169-72.74317 72.743169-40.568306 0-72.743169-33.57377-72.743169-72.743169 0-40.568306 33.57377-72.743169 72.743169-72.74317zM714.84153 765.202186c-12.590164-1.398907-25.180328 6.994536-26.579235 20.983606-1.398907 12.590164 6.994536 25.180328 20.983607 26.579235 163.672131 20.983607 219.628415 61.551913 219.628415 76.939891 0 29.377049-146.885246 88.131148-415.47541 88.131148S97.923497 919.081967 97.923497 889.704918c0-15.387978 55.956284-55.956284 221.027323-76.939891 12.590164-1.398907 22.382514-13.989071 20.983606-26.579235s-13.989071-22.382514-26.579235-20.983606C214.032787 777.79235 48.961749 809.967213 48.961749 888.306011c0 93.726776 240.612022 135.693989 463.038251 135.693989s463.038251-41.967213 463.038251-135.693989c0-78.338798-162.273224-110.513661-260.196721-123.103825z" p-id="6981" fill="#515151"></path></svg>