<?xml version="1.0" standalone="no"?><!DOCTYPE svg PUBLIC "-//W3C//DTD SVG 1.1//EN" "http://www.w3.org/Graphics/SVG/1.1/DTD/svg11.dtd"><svg t="1515490448216" class="icon" style="" viewBox="0 0 1233 1024" version="1.1" xmlns="http://www.w3.org/2000/svg" p-id="6624" xmlns:xlink="http://www.w3.org/1999/xlink" width="38.53125" height="32"><defs><style type="text/css"></style></defs><path d="M1217.901714 84.971102c19.570939-19.017143 20.07249-50.322286 1.149388-69.945469-18.996245-19.623184-50.123755-20.041143-69.663347-1.107592l-52.704653 51.314939c-52.244898-40.280816-119.170612-65.212082-200.474122-65.212082-159.012571 0-244.777796 103.277714-278.569796 156.766041C582.384327 103.601633 493.724735 0.020898 339.915755 0.020898 116.819592 0.020898 0 183.055673 0 363.833469 0 657.355755 583.502367 1006.550204 608.350041 1021.325061c3.009306 1.797224 6.478367 2.674939 9.863837 2.674939 3.395918 0 6.854531-0.877714 9.863837-2.674939 24.659592-14.618122 604.849633-360.489796 604.849633-657.491592 0-80.707918-23.238531-161.760653-68.388571-226.857796L1217.901714 84.971102zM1194.39151 363.833469c0 215.823673-371.085061 495.375673-576.177633 618.778122C411.961469 858.143347 38.535837 577.222531 38.535837 363.833469c0-161.802449 103.52849-325.632 301.379918-325.632 133.078204 0 210.944 87.426612 245.55102 139.546122l32.987429 49.705796 31.858939-50.395429C683.060245 125.220571 758.585469 38.211918 896.20898 38.211918c69.318531 0 126.693878 20.803918 172.188735 54.554122L622.372571 526.973388 437.780898 341.733878c-19.267918-19.393306-50.437224-19.393306-69.705143 0-19.267918 19.205224-19.267918 50.552163 0 69.830531l218.92702 219.762939c9.633959 9.665306 22.193633 14.471837 34.826449 14.471837 12.329796 0 24.701388-4.576653 34.293551-13.938939l480.276898-467.539592C1174.820571 221.957224 1194.39151 293.093878 1194.39151 363.833469z" p-id="6625"></path></svg>