<?xml version="1.0" standalone="no"?><!DOCTYPE svg PUBLIC "-//W3C//DTD SVG 1.1//EN" "http://www.w3.org/Graphics/SVG/1.1/DTD/svg11.dtd"><svg t="1515549583056" class="icon" style="" viewBox="0 0 1024 1024" version="1.1" xmlns="http://www.w3.org/2000/svg" p-id="2170" xmlns:xlink="http://www.w3.org/1999/xlink" width="32" height="32"><defs><style type="text/css"></style></defs><path d="M887.7056 684.032c-30.8992-21.6064-63.2576-41.6-91.0848-56.2944-45.0816-23.7824-64.4352-26.5216-75.0592-26.5216-21.4272 0-40.0128 11.1872-55.2704 33.2544-10.0352 14.5408-17.5872 31.9744-24.8832 48.8448-4.9152 11.3664-12.8 29.5424-18.304 36.4544-10.2656-2.4064-34.9952-12.9792-76.928-41.5232-39.0912-26.5984-81.4336-61.0048-113.3824-92.0832-31.104-31.9232-65.5104-74.24-92.1344-113.28-28.5696-41.9072-39.1424-66.6368-41.5488-76.8768 6.9376-5.5296 25.1136-13.3632 36.48-18.304 16.8704-7.296 34.3296-14.848 48.8704-24.8576 22.0672-15.232 33.28-33.792 33.28-55.2192 0-10.624-2.7648-29.9264-26.5472-75.008-14.6944-27.8272-34.7136-60.16-56.3456-91.0336-16.1024-22.9888-40.6784-55.9872-66.2784-82.5088C239.6416 19.0464 217.6 5.6576 197.1456 5.6576c-49.8176 0-108.4672 72.9856-125.2352 95.3344-21.504 28.672-71.5264 102.8608-71.5264 172.7744 0 65.3312 43.5712 149.6832 80.1024 208.9472 48.9216 79.36 116.6336 164.8384 190.6176 240.7168l24.1152 24.0896 0.2816 0.256c75.9296 73.9328 161.4592 141.5936 240.8704 190.4896 59.2896 36.5312 143.6928 80.0512 209.0752 80.0512 69.9648 0 144.2304-49.9968 172.9024-71.5008 22.3744-16.768 95.3856-75.3664 95.3856-125.1584 0-20.4544-13.3888-42.4704-43.4176-71.3984C943.7184 724.6848 910.72 700.1344 887.7056 684.032zM934.4256 851.6864c-13.9776 16.1024-33.4592 33.664-54.8608 49.4336-48.8448 35.9424-98.9952 57.4208-134.1696 57.4208-39.5008 0-104.2688-25.9328-177.664-71.168-75.7248-46.6432-157.5424-111.36-230.3744-182.272l-23.552-23.552c-70.9376-72.8064-135.7056-154.5472-182.4-230.2208-45.2352-73.3696-71.1936-138.0864-71.1936-177.5616 0-35.1488 21.4784-85.2736 57.472-134.0672 15.7696-21.4016 33.3312-40.8832 49.4592-54.8352C182.272 71.7824 192.1536 66.9952 196.1216 65.7664c10.88 5.0688 44.9024 35.1232 93.3632 105.344 18.9952 27.52 36.4544 56.0128 49.1776 80.1536 15.9488 30.336 18.7136 42.9824 19.1744 45.8752-0.768 1.1264-3.5328 4.4288-11.9552 9.4464-9.4208 5.6064-21.9392 11.008-34.0224 16.2304-15.0016 6.4768-30.5152 13.2096-43.008 21.4528-20.4032 13.4912-30.5408 30.08-30.1312 49.28 0.2048 9.1904 0.7936 37.12 52.5056 112.9728 28.544 41.8816 65.5616 87.3472 99.0208 121.6512l0.5376 0.5376c34.304 33.4336 79.8208 70.4256 121.728 98.9696 75.904 51.6608 103.8592 52.2496 113.0496 52.4544 0.3584 0 0.7168 0.0256 1.0752 0.0256 18.8672 0 35.1744-10.2656 48.4608-30.4384 8.1664-12.416 14.8224-27.776 21.248-42.6496 5.2224-12.0832 10.624-24.576 16.256-33.9968 5.0176-8.4224 8.32-11.1872 9.4464-11.9552 2.8928 0.4608 15.5392 3.2 45.9008 19.1488 24.1664 12.6976 52.6592 30.1568 80.2048 49.152 70.2208 48.4096 100.3264 82.432 105.3952 93.312C952.3456 826.6752 947.5328 836.5568 934.4256 851.6864zM529.28 379.4176c32.9472-5.8112 65.9456 0.8192 92.9792 18.6368 26.624 17.5616 44.2624 44.0064 49.6128 74.3936 1.8688 10.624 11.136 18.1248 21.5552 18.1248 1.2544 0 2.5344-0.1024 3.84-0.3328 11.9296-2.0992 19.8912-13.4656 17.792-25.3952-7.4752-42.3936-31.872-79.104-68.6592-103.3728-36.4032-24.0128-80.7168-32.9728-124.7232-25.216-11.9296 2.0992-19.8912 13.4656-17.792 25.3952S517.3504 381.5168 529.28 379.4176zM529.28 235.776c63.1808-11.136 126.592 1.5872 178.5088 35.84 51.5328 33.9968 85.6576 85.248 96.0768 144.256 1.8688 10.624 11.136 18.0992 21.5552 18.0992 1.2544 0 2.5344-0.1024 3.84-0.3328 11.9296-2.0992 19.8912-13.4656 17.792-25.3952-12.5184-70.9888-53.4016-132.5056-115.1232-173.2096-61.3376-40.448-136.0128-55.5264-210.2784-42.4448-11.9296 2.0992-19.8912 13.4656-17.792 25.3952C505.984 229.9136 517.3504 237.8752 529.28 235.776zM840.448 116.8896c-97.664-64.4096-216.6272-88.3968-334.976-67.5328-11.9296 2.0992-19.8912 13.4656-17.792 25.3952s13.4656 19.8656 25.3952 17.7664c107.264-18.8928 214.9376 2.7392 303.2064 60.9536 87.8848 57.9584 146.048 145.3568 163.8144 246.0672 1.8688 10.624 11.136 18.1248 21.5808 18.1248 1.2544 0 2.5344-0.1024 3.84-0.3328 11.9296-2.0992 19.8912-13.4656 17.792-25.3952C1003.4176 279.2192 938.4704 181.5296 840.448 116.8896z" p-id="2171" fill="#2c2c2c"></path></svg>