<?xml version="1.0" standalone="no"?><!DOCTYPE svg PUBLIC "-//W3C//DTD SVG 1.1//EN" "http://www.w3.org/Graphics/SVG/1.1/DTD/svg11.dtd"><svg t="1515241699761" class="icon" style="" viewBox="0 0 1024 1024" version="1.1" xmlns="http://www.w3.org/2000/svg" p-id="27461" xmlns:xlink="http://www.w3.org/1999/xlink" width="32" height="32"><defs><style type="text/css"></style></defs><path d="M20.801257 843.562465c0 33.913391 27.492144 61.398372 61.399395 61.398372l859.596649 0c33.914414 0 61.400419-27.484981 61.400419-61.398372L1003.19772 315.518047 20.801257 315.518047 20.801257 843.562465zM659.358651 462.883349l101.20089 0c45.834908 0 82.997296 37.152155 82.997296 82.985016l0 12.279674c0 49.120744-39.812751 88.933495-88.921215 88.933495l-58.436924 0 0 110.521163-36.840046 0L659.358651 462.883349zM499.719814 462.883349l36.840046 0 0 294.719348-36.840046 0L499.719814 462.883349zM241.840512 462.883349l55.259558 221.039255 55.259558-221.039255 36.840046 0L315.519582 757.602697l-36.839023 0-73.680093-294.719348L241.840512 462.883349zM941.797301 119.03814 82.200652 119.03814c-33.907251 0-61.399395 27.492144-61.399395 61.399395l0 85.959767 982.39544 0 0-85.959767C1003.19772 146.531308 975.710692 119.03814 941.797301 119.03814zM806.718837 561.121767l0-12.279674c0-27.124777-21.99392-49.118698-49.120744-49.118698l-61.399395 0 0 110.519116 61.399395 0C784.724917 610.242512 806.718837 588.249615 806.718837 561.121767z" p-id="27462" fill="#94204B"></path></svg>