<?xml version="1.0" standalone="no"?><!DOCTYPE svg PUBLIC "-//W3C//DTD SVG 1.1//EN" "http://www.w3.org/Graphics/SVG/1.1/DTD/svg11.dtd"><svg t="1515241603355" class="icon" style="" viewBox="0 0 1024 1024" version="1.1" xmlns="http://www.w3.org/2000/svg" p-id="21157" xmlns:xlink="http://www.w3.org/1999/xlink" width="32" height="32"><defs><style type="text/css"></style></defs><path d="M516.096 516.096m-366.08 0a366.08 366.08 0 1 0 732.16 0 366.08 366.08 0 1 0-732.16 0Z" fill="#FFFFFF" p-id="21158"></path><path d="M504.832 411.648c15.872 0 26.624-10.752 26.624-26.624s-10.752-26.624-26.624-26.624-31.744 10.752-31.744 26.624 15.872 26.624 31.744 26.624z m69.12 100.352c-10.752 0-20.992 10.752-20.992 20.992 0 10.752 10.752 20.992 20.992 20.992 15.872 0 26.624-10.752 26.624-20.992-0.512-10.24-10.752-20.992-26.624-20.992zM356.864 358.912c-15.872 0-31.744 10.752-31.744 26.624s15.872 26.624 31.744 26.624 26.624-10.752 26.624-26.624-10.752-26.624-26.624-26.624z m332.8 153.088c-10.752 0-20.992 10.752-20.992 20.992 0 10.752 10.752 20.992 20.992 20.992 15.872 0 26.624-10.752 26.624-20.992 0-10.24-10.24-20.992-26.624-20.992z" fill="#07B906" p-id="21159"></path><path d="M736.256 64H288.256c-123.392 0-224.256 100.864-224.256 224.256v448c0 123.392 100.864 224.256 224.256 224.256h448c123.392 0 224.256-100.864 224.256-224.256V288.256c-0.512-123.392-101.376-224.256-224.256-224.256zM425.472 628.736c-26.624 0-47.616-5.632-74.24-10.752l-73.728 36.864 20.992-63.488C245.76 554.496 214.016 506.88 214.016 448.512c0-100.352 95.232-179.712 211.456-179.712 103.936 0 195.072 63.488 213.504 148.48-6.656-1.024-13.312-1.024-20.48-1.024-100.352 0-179.712 74.752-179.712 167.424 0 15.36 2.56 30.208 6.656 44.544-6.656 0-13.312 0.512-19.968 0.512z m311.808 73.728l15.872 52.736-57.856-31.744c-20.992 5.12-42.496 10.752-63.488 10.752-100.352 0-179.712-68.608-179.712-153.6 0-84.48 79.36-153.6 179.712-153.6 95.232 0 179.712 69.12 179.712 153.6 0 48.128-31.744 90.112-74.24 121.856z" fill="#07B906" p-id="21160"></path></svg>