<?xml version="1.0" standalone="no"?><!DOCTYPE svg PUBLIC "-//W3C//DTD SVG 1.1//EN" "http://www.w3.org/Graphics/SVG/1.1/DTD/svg11.dtd"><svg t="1515553743599" class="icon" style="" viewBox="0 0 1024 1024" version="1.1" xmlns="http://www.w3.org/2000/svg" p-id="2903" xmlns:xlink="http://www.w3.org/1999/xlink" width="32" height="32"><defs><style type="text/css"></style></defs><path d="M379.904 721.92c-8.192 0-15.36-4.096-19.456-11.264l-117.76-204.8c-6.144-11.264-3.072-25.6 8.192-31.744 11.264-6.144 25.6-3.072 31.744 8.192l107.52 186.368 23.552-10.24L358.4 480.256c-4.096-12.288 3.072-25.6 15.36-28.672 12.288-4.096 25.6 3.072 28.672 15.36l60.416 197.632c3.072 11.264-2.048 22.528-12.288 27.648l-61.44 27.648c-2.048 2.048-5.12 2.048-9.216 2.048z" p-id="2904"></path><path d="M300.032 514.048c-118.784 0-214.016-96.256-214.016-214.016 0-117.76 96.256-214.016 214.016-214.016 66.56 0 130.048 30.72 169.984 83.968h223.232c44.032 0 80.896 35.84 80.896 80.896v98.304c0 45.056-35.84 80.896-80.896 80.896H471.04c-40.96 52.224-103.424 83.968-171.008 83.968z m0-381.952c-93.184 0-167.936 74.752-167.936 167.936 0 92.16 75.776 167.936 167.936 167.936 56.32 0 108.544-27.648 139.264-73.728 4.096-6.144 11.264-10.24 19.456-10.24h235.52c19.456 0 34.816-15.36 34.816-34.816v-98.304c0-19.456-15.36-34.816-34.816-34.816h-235.52c-7.168 0-14.336-4.096-19.456-10.24-30.72-46.08-82.944-73.728-139.264-73.728z m49.152 805.888c-10.24 0-19.456-7.168-22.528-17.408-14.336-63.488 15.36-80.896 54.272-103.424 8.192-5.12 18.432-10.24 29.696-17.408 8.192-5.12 12.288-11.264 13.312-19.456 4.096-23.552-18.432-58.368-26.624-68.608s-6.144-24.576 4.096-32.768c10.24-8.192 24.576-6.144 32.768 3.072 4.096 5.12 44.032 56.32 35.84 105.472-3.072 20.48-15.36 38.912-34.816 50.176-11.264 7.168-21.504 13.312-30.72 18.432-36.864 21.504-39.936 22.528-32.768 53.248 3.072 12.288-5.12 24.576-17.408 27.648-1.024 0-3.072 1.024-5.12 1.024z" p-id="2905"></path><path d="M301.056 427.008c-31.744 0-61.44-12.288-83.968-34.816-7.168-7.168-7.168-17.408 0-24.576s17.408-7.168 24.576 0c15.36 16.384 36.864 24.576 59.392 24.576 46.08 0 83.968-36.864 83.968-82.944 0-28.672-14.336-55.296-39.936-70.656-8.192-5.12-10.24-15.36-5.12-23.552 5.12-8.192 15.36-10.24 23.552-5.12 34.816 21.504 56.32 59.392 56.32 100.352-1.024 63.488-54.272 116.736-118.784 116.736zM635.904 430.08c-12.288 0-23.552-10.24-23.552-23.552V203.776c0-12.288 10.24-23.552 23.552-23.552 12.288 0 23.552 10.24 23.552 23.552v202.752c-1.024 13.312-11.264 23.552-23.552 23.552zM915.456 254.976h-90.112c-12.288 0-23.552-10.24-23.552-23.552 0-12.288 10.24-23.552 23.552-23.552h90.112c12.288 0 23.552 10.24 23.552 23.552-1.024 12.288-11.264 23.552-23.552 23.552z m0 67.584h-90.112c-12.288 0-23.552-10.24-23.552-23.552 0-12.288 10.24-23.552 23.552-23.552h90.112c12.288 0 23.552 10.24 23.552 23.552-1.024 13.312-11.264 23.552-23.552 23.552z m0 68.608h-90.112c-12.288 0-23.552-10.24-23.552-23.552 0-12.288 10.24-23.552 23.552-23.552h90.112c12.288 0 23.552 10.24 23.552 23.552-1.024 13.312-11.264 23.552-23.552 23.552z" p-id="2906"></path></svg>