<?xml version="1.0" standalone="no"?><!DOCTYPE svg PUBLIC "-//W3C//DTD SVG 1.1//EN" "http://www.w3.org/Graphics/SVG/1.1/DTD/svg11.dtd"><svg t="1515481952213" class="icon" style="" viewBox="0 0 1037 1024" version="1.1" xmlns="http://www.w3.org/2000/svg" p-id="2857" xmlns:xlink="http://www.w3.org/1999/xlink" width="32.40625" height="32"><defs><style type="text/css"></style></defs><path d="M1025.292929 283.280808L799.676768 58.69899c-8.533333-8.533333-19.006061-12.670707-30.771717-12.670707H269.058586c-11.636364 0-22.238384 4.266667-30.771717 12.670707L12.670707 283.280808c-8.533333 8.533333-12.670707 19.006061-12.670707 30.771717v88.953536c0 10.60202 4.266667 21.20404 10.60202 28.573737l476.573738 532.816162c16.937374 19.006061 46.545455 19.006061 63.612121 0l476.573737-532.816162c7.369697-7.369697 10.60202-17.971717 10.60202-28.573737v-88.953536c0-11.636364-4.266667-22.238384-12.670707-30.771717z m-73.050505 132.39596L518.981818 900.783838l-433.131313-485.10707V312.888889L295.563636 104.339394h448l209.713132 208.678788v102.787879h-1.034344z m0 0" fill="#A2CADC" p-id="2858"></path><path d="M295.563636 103.305051L85.850505 311.854545v102.787879l433.131313 486.141414 433.260606-485.10707v-102.658586L742.529293 103.305051z" fill="#E2E2E2" p-id="2859"></path><path d="M518.981818 738.779798l-321.939394-430.028283h190.577778l-14.739394 40.210101 146.10101 199.111111 146.230303-198.076767-14.868687-40.210101h190.577778z" fill="#6CE0FF" p-id="2860"></path><path d="M665.212121 348.961616l-146.230303 199.111111-146.10101-199.111111 14.868687-40.210101H197.042424l321.939394 428.99394v1.034343l321.939394-428.993939H650.343434l14.868687 39.175757z m0 0" fill="#FFFFFF" p-id="2861"></path></svg>